# xmcd
#
# Track frame offsets:
#	180
#	13750
#	29188
#	45162
#	63765
#	78319
#	91132
#	107186
#	125093
#	138661
#	154083
#	170087
#	188691
#	203155
#	216050
#	232157
#
# Disc length: 3339 seconds
#
# Revision: 1
# Processed by: cddbd v1.5.1PL2 Copyright (c) Steve Scherf et al.
# Submitted via: audiograbber 1.83.01
#
DISCID=df0d0910
DTITLE=Duets - Sc2012
DYEAR=1900
DGENRE=Country
TTITLE0=O'Brien and Mattea - Battle Hymn Of Love, The
TTITLE1=McEntire, Reba and Gill, Vince - Heart Won't Lie, The
TTITLE2=Parton, Dolly and Shelton, Ricky Van - Rockin' Years
TTITLE3=Gayle, Crystal and Rabbit, Eddie - You And I
TTITLE4=Greenwood, Lee and Mandrell, Barbara - To Me
TTITLE5=Greenwood, Lee and Boggus Suzi - Hopelessly Yours
TTITLE6=Parton, Dolly and Raye, Collin - Whenever Forever Comes
TTITLE7=Whitley, Keith and Morgan, Lorrie - Til A Tear Becomes A Rose
TTITLE8=O'Brien and Mattea (Vocal) - Battle Hymn Of Love, The
TTITLE9=McEntire, Reba and Gill, Vince (Vocal) - Heart Won't Lie, The
TTITLE10=Parton, Dolly and Shelton, Ricky Van (Vocal) - Rockin' Years
TTITLE11=Gayle, Crystal and Rabbit, Eddie (Vocal) - You And I
TTITLE12=Greenwood, Lee and Mandrell, Barbara (Vocal) - To Me
TTITLE13=Greenwood, Lee and Boggus Suzi (Vocal) - Hopelessly Yours
TTITLE14=Parton, Dolly and Raye, Collin (Vocal) - Whenever Forever Comes
TTITLE15=Whitley, Keith and Morgan, Lorrie (Vocal) - Til A Tear Becomes A Rose
EXTD=
EXTT0=
EXTT1=
EXTT2=
EXTT3=
EXTT4=
EXTT5=
EXTT6=
EXTT7=
EXTT8=
EXTT9=
EXTT10=
EXTT11=
EXTT12=
EXTT13=
EXTT14=
EXTT15=
PLAYORDER=
